<svg version="1.1" id="Layer_1" xmlns="http://www.w3.org/2000/svg" xmlns:xlink="http://www.w3.org/1999/xlink" x="0px" y="0px"
	 width="100%" viewBox="0 0 512 512" enable-background="new 0 0 512 512" xml:space="preserve">
<path fill="#FFFFFF" opacity="1.000000" stroke="none" 
	d="
M1.000000,223.000000 
	C1.000000,149.031036 1.000000,75.062080 1.000000,1.046558 
	C171.564041,1.046558 342.128082,1.046558 513.000000,1.046558 
	C513.000000,101.355133 513.000000,201.710587 512.620605,302.404236 
	C510.452240,292.337891 506.506561,283.073181 498.956879,275.367828 
	C490.253723,266.485199 479.727539,261.262604 467.692200,259.100494 
	C461.289032,257.950165 454.740784,257.350739 448.235779,257.114899 
	C443.927582,256.958649 439.579956,257.888275 435.500000,258.306152 
	C435.500000,246.102310 435.500000,234.758392 435.500000,223.000000 
	C290.744507,223.000000 145.872253,223.000000 1.000000,223.000000 
M235.867203,201.005447 
	C243.680115,197.421753 252.060791,194.711258 259.189850,190.075836 
	C274.902252,179.859436 278.205139,166.162994 272.780304,149.874802 
	C270.324738,142.501892 265.759277,135.848480 262.366272,128.765549 
	C259.769318,123.344406 258.578918,117.430351 261.234253,111.886200 
	C262.940033,108.324669 266.226837,105.520370 269.666046,101.326653 
	C264.032990,102.715584 259.356903,103.625854 254.834229,105.030220 
	C242.383438,108.896400 236.451630,118.962059 240.989197,132.508255 
	C243.982224,141.443436 247.788361,150.121567 250.475357,159.139786 
	C253.290436,168.587830 253.564102,178.215744 246.990524,186.505997 
	C243.089828,191.425369 238.502792,195.800537 233.778809,200.802887 
	C233.647156,201.138214 233.515503,201.473526 233.383835,201.808838 
	C233.947495,201.565857 234.511154,201.322876 235.867203,201.005447 
M187.038345,150.421860 
	C189.341354,155.870682 192.289093,161.146591 193.806793,166.806000 
	C196.563019,177.083908 195.555756,187.126480 188.636612,195.780441 
	C185.540039,199.653381 181.931290,203.116821 178.340744,206.997650 
	C179.354889,206.997650 180.339767,207.206970 181.197754,206.965500 
	C190.581100,204.324585 200.428513,202.668365 209.189346,198.650314 
	C219.804047,193.782028 228.667038,185.895508 231.872223,173.949600 
	C235.315109,161.117798 232.128174,148.775238 226.543060,137.214523 
	C218.794189,121.175026 210.251282,105.515350 206.409409,87.888557 
	C203.925995,76.494598 203.499908,65.151733 206.998566,53.898846 
	C211.090820,40.736736 218.747360,29.980463 229.281036,21.157099 
	C232.570816,18.401474 235.594833,15.328587 239.014771,12.145699 
	C238.007263,12.084004 237.458786,11.895923 237.028717,12.046350 
	C219.845718,18.056150 203.127289,24.749752 188.745560,36.546051 
	C170.619034,51.413956 159.278732,68.905045 161.877457,93.513947 
	C162.893631,103.136688 165.088303,112.362404 169.517975,120.758842 
	C174.760483,130.696030 181.103348,140.052734 187.038345,150.421860 
z"/>
<path fill="#000000" opacity="1.000000" stroke="none" 
	d="
M1.000000,223.468658 
	C145.872253,223.000000 290.744507,223.000000 435.500000,223.000000 
	C435.500000,234.758392 435.500000,246.102310 435.500000,258.306152 
	C439.579956,257.888275 443.927582,256.958649 448.235779,257.114899 
	C454.740784,257.350739 461.289032,257.950165 467.692200,259.100494 
	C479.727539,261.262604 490.253723,266.485199 498.956879,275.367828 
	C506.506561,283.073181 510.452240,292.337891 512.620605,302.871216 
	C513.000000,310.687592 513.000000,318.375153 512.614746,326.667389 
	C510.807800,340.650604 504.805878,351.948792 495.802490,361.588867 
	C482.604980,375.719666 465.602997,383.557648 447.445007,388.904877 
	C432.447754,393.321320 416.952454,395.172943 401.348602,396.084351 
	C400.191589,396.151947 398.908295,397.225403 398.015015,398.151001 
	C389.144165,407.343201 381.167877,417.622162 371.318329,425.591064 
	C358.350128,436.083130 343.772095,444.458679 327.806549,450.057861 
	C317.100922,453.812347 306.651123,457.308197 294.849091,457.203613 
	C242.044708,456.735596 189.233688,457.046387 136.425491,456.913422 
	C132.122650,456.902588 127.665253,456.180603 123.546959,454.917511 
	C94.053749,445.872040 67.558968,431.873108 46.763504,408.344086 
	C33.980064,393.880249 24.643320,377.426147 18.083828,359.451324 
	C9.156978,334.989288 4.659244,309.558350 2.926880,283.605072 
	C2.822023,282.034180 1.666594,280.533417 0.999999,279.000000 
	C1.000000,277.933319 1.000000,276.866669 1.377063,275.273926 
	C1.502752,272.831909 1.251377,270.915955 1.000001,269.000000 
	C1.000000,253.979111 1.000000,238.958206 1.000000,223.468658 
M457.220398,291.000000 
	C451.560150,291.000000 445.899902,290.998444 440.239655,291.000397 
	C433.232452,291.002869 432.678558,292.012451 431.897095,299.106781 
	C430.833496,308.762177 429.557526,318.452454 427.435791,327.917786 
	C424.960815,338.958984 421.475677,349.773773 418.391907,360.819183 
	C418.849060,360.865875 419.525757,361.097260 420.129089,360.972839 
	C436.528259,357.591888 452.598907,353.674835 466.481506,343.300812 
	C476.935974,335.488556 483.071289,319.346466 479.500702,306.908051 
	C476.364746,295.983643 468.115234,292.474243 457.220398,291.000000 
z"/>
<path fill="#FFFFFF" opacity="1.000000" stroke="none" 
	d="
M0.999999,279.468658 
	C1.666594,280.533417 2.822023,282.034180 2.926880,283.605072 
	C4.659244,309.558350 9.156978,334.989288 18.083828,359.451324 
	C24.643320,377.426147 33.980064,393.880249 46.763504,408.344086 
	C67.558968,431.873108 94.053749,445.872040 123.546959,454.917511 
	C127.665253,456.180603 132.122650,456.902588 136.425491,456.913422 
	C189.233688,457.046387 242.044708,456.735596 294.849091,457.203613 
	C306.651123,457.308197 317.100922,453.812347 327.806549,450.057861 
	C343.772095,444.458679 358.350128,436.083130 371.318329,425.591064 
	C381.167877,417.622162 389.144165,407.343201 398.015015,398.151001 
	C398.908295,397.225403 400.191589,396.151947 401.348602,396.084351 
	C416.952454,395.172943 432.447754,393.321320 447.445007,388.904877 
	C465.602997,383.557648 482.604980,375.719666 495.802490,361.588867 
	C504.805878,351.948792 510.807800,340.650604 512.614746,327.136017 
	C513.000000,388.970886 513.000000,450.941772 513.000000,512.956299 
	C342.442627,512.956299 171.885239,512.956299 1.000000,512.956299 
	C1.000000,435.312744 1.000000,357.625031 0.999999,279.468658 
M44.994564,469.024689 
	C45.000473,470.907776 44.653297,472.873352 45.070702,474.660309 
	C47.440853,484.806793 56.344814,491.254028 65.624489,491.109161 
	C87.444695,490.768463 109.274254,490.943848 131.098526,491.109039 
	C132.801163,491.121948 135.494308,492.280121 136.020950,493.591278 
	C138.813934,500.544739 144.181931,502.050232 150.887192,502.040527 
	C202.035446,501.966522 253.183853,502.000183 304.332214,501.999878 
	C313.295380,501.999847 316.677704,499.601471 319.680267,491.000000 
	C343.274628,491.000000 366.926636,491.120392 390.574493,490.863159 
	C393.912872,490.826874 397.445190,489.375763 400.516479,487.838043 
	C408.033997,484.074249 409.558044,476.720642 410.838837,469.001556 
	C289.125916,469.001556 167.519440,469.001556 44.994564,469.024689 
z"/>
<path fill="#FFFFFF" opacity="1.000000" stroke="none" 
	d="
M1.000001,269.428467 
	C1.251377,270.915955 1.502752,272.831909 1.377063,274.873932 
	C1.000000,273.285645 1.000000,271.571289 1.000001,269.428467 
z"/>
<path fill="#000000" opacity="1.000000" stroke="none" 
	d="
M187.003815,150.041443 
	C181.103348,140.052734 174.760483,130.696030 169.517975,120.758842 
	C165.088303,112.362404 162.893631,103.136688 161.877457,93.513947 
	C159.278732,68.905045 170.619034,51.413956 188.745560,36.546051 
	C203.127289,24.749752 219.845718,18.056150 237.028717,12.046350 
	C237.458786,11.895923 238.007263,12.084004 239.014771,12.145699 
	C235.594833,15.328587 232.570816,18.401474 229.281036,21.157099 
	C218.747360,29.980463 211.090820,40.736736 206.998566,53.898846 
	C203.499908,65.151733 203.925995,76.494598 206.409409,87.888557 
	C210.251282,105.515350 218.794189,121.175026 226.543060,137.214523 
	C232.128174,148.775238 235.315109,161.117798 231.872223,173.949600 
	C228.667038,185.895508 219.804047,193.782028 209.189346,198.650314 
	C200.428513,202.668365 190.581100,204.324585 181.197754,206.965500 
	C180.339767,207.206970 179.354889,206.997650 178.340744,206.997650 
	C181.931290,203.116821 185.540039,199.653381 188.636612,195.780441 
	C195.555756,187.126480 196.563019,177.083908 193.806793,166.806000 
	C192.289093,161.146591 189.341354,155.870682 187.003815,150.041443 
z"/>
<path fill="#000000" opacity="1.000000" stroke="none" 
	d="
M234.224350,200.420395 
	C238.502792,195.800537 243.089828,191.425369 246.990524,186.505997 
	C253.564102,178.215744 253.290436,168.587830 250.475357,159.139786 
	C247.788361,150.121567 243.982224,141.443436 240.989197,132.508255 
	C236.451630,118.962059 242.383438,108.896400 254.834229,105.030220 
	C259.356903,103.625854 264.032990,102.715584 269.666046,101.326653 
	C266.226837,105.520370 262.940033,108.324669 261.234253,111.886200 
	C258.578918,117.430351 259.769318,123.344406 262.366272,128.765549 
	C265.759277,135.848480 270.324738,142.501892 272.780304,149.874802 
	C278.205139,166.162994 274.902252,179.859436 259.189850,190.075836 
	C252.060791,194.711258 243.680115,197.421753 235.265823,200.868210 
	C234.517746,200.627441 234.371048,200.523926 234.224350,200.420395 
z"/>
<path fill="#000000" opacity="1.000000" stroke="none" 
	d="
M234.869629,200.905426 
	C234.511154,201.322876 233.947495,201.565857 233.383850,201.808838 
	C233.515503,201.473526 233.647156,201.138214 234.001587,200.611633 
	C234.371048,200.523926 234.517746,200.627441 234.869629,200.905426 
z"/>
<path fill="#FFFFFF" opacity="1.000000" stroke="none" 
	d="
M457.685638,291.000031 
	C468.115234,292.474243 476.364746,295.983643 479.500702,306.908051 
	C483.071289,319.346466 476.935974,335.488556 466.481506,343.300812 
	C452.598907,353.674835 436.528259,357.591888 420.129089,360.972839 
	C419.525757,361.097260 418.849060,360.865875 418.391907,360.819183 
	C421.475677,349.773773 424.960815,338.958984 427.435791,327.917786 
	C429.557526,318.452454 430.833496,308.762177 431.897095,299.106781 
	C432.678558,292.012451 433.232452,291.002869 440.239655,291.000397 
	C445.899902,290.998444 451.560150,291.000000 457.685638,291.000031 
z"/>
<path fill="#000000" opacity="1.000000" stroke="none" 
	d="
M45.453766,469.013123 
	C167.519440,469.001556 289.125916,469.001556 410.838837,469.001556 
	C409.558044,476.720642 408.033997,484.074249 400.516479,487.838043 
	C397.445190,489.375763 393.912872,490.826874 390.574493,490.863159 
	C366.926636,491.120392 343.274628,491.000000 319.680267,491.000000 
	C316.677704,499.601471 313.295380,501.999847 304.332214,501.999878 
	C253.183853,502.000183 202.035446,501.966522 150.887192,502.040527 
	C144.181931,502.050232 138.813934,500.544739 136.020950,493.591278 
	C135.494308,492.280121 132.801163,491.121948 131.098526,491.109039 
	C109.274254,490.943848 87.444695,490.768463 65.624489,491.109161 
	C56.344814,491.254028 47.440853,484.806793 45.070702,474.660309 
	C44.653297,472.873352 45.000473,470.907776 45.453766,469.013123 
z"/>
</svg>