<svg version="1.1" id="Layer_1" xmlns="http://www.w3.org/2000/svg" xmlns:xlink="http://www.w3.org/1999/xlink" x="0px" y="0px"
	 width="100%" viewBox="0 0 512 512" enable-background="new 0 0 512 512" xml:space="preserve">
<path fill="#000000" opacity="1.000000" stroke="none" 
	d="
M0.999998,366.000000 
	C1.000000,320.645782 1.000000,275.291534 1.340947,229.390778 
	C6.461941,221.068527 13.274983,217.460114 22.522415,217.924744 
	C29.932318,218.297043 37.375851,218.000000 45.000000,218.000000 
	C45.000000,190.452072 44.979294,163.486618 45.044373,136.521362 
	C45.048943,134.627823 45.383827,132.614761 46.082001,130.863327 
	C49.821632,121.482063 57.506821,118.056862 66.906822,118.042213 
	C122.045441,117.956284 177.184265,118.000000 232.323013,118.000000 
	C234.103912,118.000000 235.884811,118.000000 238.038544,118.000000 
	C238.038544,80.491310 238.038544,43.431099 238.038544,6.207579 
	C250.820816,6.207579 263.221466,6.207579 276.002869,6.207579 
	C276.002869,43.472778 276.002869,80.532997 276.002869,118.000000 
	C278.162781,118.000000 279.949158,118.000000 281.735535,118.000000 
	C336.874298,118.000000 392.013031,118.012093 447.151794,117.990501 
	C459.169769,117.985794 469.541779,125.816666 469.180420,139.583054 
	C468.538055,164.053802 469.000000,188.553528 469.000000,213.041138 
	C469.000000,214.634232 469.000000,216.227310 469.000000,218.000000 
	C476.916107,218.000000 484.238739,218.250824 491.537354,217.939499 
	C501.734894,217.504517 508.915863,221.600113 513.000000,231.000000 
	C513.000000,275.020905 513.000000,319.041779 512.645142,363.632141 
	C511.909760,365.250153 511.631317,366.350250 511.132507,367.339203 
	C507.197266,375.141479 499.808411,376.521423 492.247742,376.913361 
	C484.648956,377.307251 477.013794,377.000000 469.000000,377.000000 
	C469.000000,379.005951 469.000000,380.626801 469.000000,382.247620 
	C469.000000,417.731567 468.700317,453.219543 469.179718,488.696991 
	C469.326538,499.561951 458.364136,508.047607 449.966553,508.043518 
	C321.358124,507.981079 192.749634,507.975372 64.141220,508.056183 
	C55.693798,508.061462 44.679085,499.508789 44.821617,488.804810 
	C45.294025,453.327148 45.000000,417.839294 45.000000,382.355347 
	C45.000000,380.605133 45.000000,378.854919 45.000000,377.000000 
	C37.166393,377.000000 30.001373,377.229614 22.857571,376.938538 
	C14.959212,376.616730 7.213840,375.571869 2.890054,367.460388 
	C2.548591,366.819763 1.643270,366.479736 0.999998,366.000000 
M291.021606,283.224762 
	C295.630615,290.920135 300.583710,298.212433 308.044006,303.658325 
	C320.717102,312.909454 334.742920,316.238708 349.966339,313.437744 
	C361.993134,311.224854 371.977539,305.108948 380.015930,295.615417 
	C388.078918,286.092834 392.517487,275.172302 392.842712,262.939484 
	C393.115997,252.660461 390.207001,242.936661 384.607605,234.052597 
	C374.952148,218.733292 361.221222,209.734985 343.293793,208.127502 
	C326.770111,206.645874 312.158539,212.888092 301.303925,224.733261 
	C286.113007,241.310455 281.584229,260.908508 291.021606,283.224762 
M210.988159,224.491577 
	C209.925507,223.762802 208.742386,223.161102 207.818817,222.285599 
	C198.576401,213.523956 187.209702,209.283447 174.878418,209.199234 
	C158.456802,209.087082 144.607422,215.464020 133.860153,228.485107 
	C124.039459,240.383606 119.846252,253.466904 121.907059,268.868774 
	C123.947624,284.119446 131.677307,295.983063 143.603928,304.701019 
	C161.228287,317.583893 186.616119,317.557098 204.365677,304.406403 
	C225.737732,288.571808 232.225113,261.525330 220.771530,238.582581 
	C218.347733,233.727448 214.630051,229.518265 210.988159,224.491577 
M284.500000,385.000000 
	C248.740768,385.000000 212.981522,385.000000 177.286896,385.000000 
	C177.286896,397.308899 177.286896,409.047455 177.286896,420.715942 
	C230.641479,420.715942 283.708679,420.715942 336.713135,420.715942 
	C336.713135,408.691132 336.713135,396.952637 336.713135,385.000000 
	C319.451447,385.000000 302.475708,385.000000 284.500000,385.000000 
z"/>
<path fill="#FFFFFF" opacity="1.000000" stroke="none" 
	d="
M513.000000,230.531342 
	C508.915863,221.600113 501.734894,217.504517 491.537354,217.939499 
	C484.238739,218.250824 476.916107,218.000000 469.000000,218.000000 
	C469.000000,216.227310 469.000000,214.634232 469.000000,213.041138 
	C469.000000,188.553528 468.538055,164.053802 469.180420,139.583054 
	C469.541779,125.816666 459.169769,117.985794 447.151794,117.990501 
	C392.013031,118.012093 336.874298,118.000000 281.735535,118.000000 
	C279.949158,118.000000 278.162781,118.000000 276.002869,118.000000 
	C276.002869,80.532997 276.002869,43.472778 276.002869,6.207579 
	C263.221466,6.207579 250.820816,6.207579 238.038544,6.207579 
	C238.038544,43.431099 238.038544,80.491310 238.038544,118.000000 
	C235.884811,118.000000 234.103912,118.000000 232.323013,118.000000 
	C177.184265,118.000000 122.045441,117.956284 66.906822,118.042213 
	C57.506821,118.056862 49.821632,121.482063 46.082001,130.863327 
	C45.383827,132.614761 45.048943,134.627823 45.044373,136.521362 
	C44.979294,163.486618 45.000000,190.452072 45.000000,218.000000 
	C37.375851,218.000000 29.932318,218.297043 22.522415,217.924744 
	C13.274983,217.460114 6.461941,221.068527 1.340947,228.922119 
	C1.000000,153.034271 1.000000,77.068535 1.000000,1.051404 
	C171.555420,1.051404 342.110870,1.051404 513.000000,1.051404 
	C513.000000,77.353905 513.000000,153.708298 513.000000,230.531342 
z"/>
<path fill="#FFFFFF" opacity="1.000000" stroke="none" 
	d="
M0.999998,366.468658 
	C1.643270,366.479736 2.548591,366.819763 2.890054,367.460388 
	C7.213840,375.571869 14.959212,376.616730 22.857571,376.938538 
	C30.001373,377.229614 37.166393,377.000000 45.000000,377.000000 
	C45.000000,378.854919 45.000000,380.605133 45.000000,382.355347 
	C45.000000,417.839294 45.294025,453.327148 44.821617,488.804810 
	C44.679085,499.508789 55.693798,508.061462 64.141220,508.056183 
	C192.749634,507.975372 321.358124,507.981079 449.966553,508.043518 
	C458.364136,508.047607 469.326538,499.561951 469.179718,488.696991 
	C468.700317,453.219543 469.000000,417.731567 469.000000,382.247620 
	C469.000000,380.626801 469.000000,379.005951 469.000000,377.000000 
	C477.013794,377.000000 484.648956,377.307251 492.247742,376.913361 
	C499.808411,376.521423 507.197266,375.141479 511.132507,367.339203 
	C511.631317,366.350250 511.909760,365.250153 512.645142,364.100769 
	C513.000000,413.639740 513.000000,463.279510 513.000000,512.959595 
	C342.452728,512.959595 171.905426,512.959595 1.000000,512.959595 
	C1.000000,464.313019 1.000000,415.625183 0.999998,366.468658 
z"/>
<path fill="#FFFFFF" opacity="1.000000" stroke="none" 
	d="
M290.973938,282.835114 
	C281.584229,260.908508 286.113007,241.310455 301.303925,224.733261 
	C312.158539,212.888092 326.770111,206.645874 343.293793,208.127502 
	C361.221222,209.734985 374.952148,218.733292 384.607605,234.052597 
	C390.207001,242.936661 393.115997,252.660461 392.842712,262.939484 
	C392.517487,275.172302 388.078918,286.092834 380.015930,295.615417 
	C371.977539,305.108948 361.993134,311.224854 349.966339,313.437744 
	C334.742920,316.238708 320.717102,312.909454 308.044006,303.658325 
	C300.583710,298.212433 295.630615,290.920135 290.973938,282.835114 
z"/>
<path fill="#FFFFFF" opacity="1.000000" stroke="none" 
	d="
M211.248352,224.751526 
	C214.630051,229.518265 218.347733,233.727448 220.771530,238.582581 
	C232.225113,261.525330 225.737732,288.571808 204.365677,304.406403 
	C186.616119,317.557098 161.228287,317.583893 143.603928,304.701019 
	C131.677307,295.983063 123.947624,284.119446 121.907059,268.868774 
	C119.846252,253.466904 124.039459,240.383606 133.860153,228.485107 
	C144.607422,215.464020 158.456802,209.087082 174.878418,209.199234 
	C187.209702,209.283447 198.576401,213.523956 207.818817,222.285599 
	C208.742386,223.161102 209.925507,223.762802 211.248352,224.751526 
z"/>
<path fill="#FFFFFF" opacity="1.000000" stroke="none" 
	d="
M285.000000,385.000000 
	C302.475708,385.000000 319.451447,385.000000 336.713135,385.000000 
	C336.713135,396.952637 336.713135,408.691132 336.713135,420.715942 
	C283.708679,420.715942 230.641479,420.715942 177.286896,420.715942 
	C177.286896,409.047455 177.286896,397.308899 177.286896,385.000000 
	C212.981522,385.000000 248.740768,385.000000 285.000000,385.000000 
z"/>
</svg>